# xmcd
#
# Track frame offsets:
#	150
#	17323
#	36261
#	58120
#	76272
#	95660
#	113553
#	130743
#	149634
#	176611
#	197120
#	217716
#	235702
#	251723
#	270220
#	290429
#	310403
#	325871
#	354559
#
# Disc length: 4793 seconds
# Revision: 0
# Processed by: cddbd v1.5.2PL0 Copyright (c) Steve Scherf et al.
# Submitted via: dBpowerAMP V12.0
#
DISCID=0c12b713
DTITLE=Fleetwood Mac - 2003 - Say You Will
DYEAR=2003
DGENRE=Blues
TTITLE0=What's The World Coming To
TTITLE1=Murrow Turning Over In His Grave
TTITLE2=Illume
TTITLE3=Thrown Down
TTITLE4=Miranda
TTITLE5=Red Rover
TTITLE6=Say You Will
TTITLE7=Peacekeeper
TTITLE8=Come
TTITLE9=Smile At You
TTITLE10=Running Through The Garden
TTITLE11=Silver Girl
TTITLE12=Steal Your Heart Away
TTITLE13=Bleed To Love Her
TTITLE14=Everybody Finds Out
TTITLE15=Destiny Rules
TTITLE16=Say Goodbye
TTITLE17=Goodbye Baby
TTITLE18=DATA
EXTD=
EXTT0=
EXTT1=
EXTT2=
EXTT3=
EXTT4=
EXTT5=
EXTT6=
EXTT7=
EXTT8=
EXTT9=
EXTT10=
EXTT11=
EXTT12=
EXTT13=
EXTT14=
EXTT15=
EXTT16=
EXTT17=
EXTT18=
PLAYORDER=
